<svg width="32" height="32" viewBox="0 0 1625.96 1196.73" xmlns="http://www.w3.org/2000/svg">
  <path fill="#bd5532" d="M817.21,173.09h936.13c25.22,0,45.7,20.48,45.7,45.7v589.95c0,25.22-20.48,45.7-45.7,45.7h-928.74c-29.3,0-53.1-23.79-53.1-53.1V218.79c0-25.22,20.48-45.7,45.7-45.7Z" transform="translate(771.5115 1799.0477) rotate(-90)"/>
  <path fill="#e1b866" d="M1351.69,1196.73h-423.71c-80.14,0-145.11-64.97-145.11-145.11V449.98c-21.39.04-42.3.16-62.58.28-24.31.14-47.28.27-69.55.27-8.21,0-14.93-2.42-19.98-7.18-3.59-3.39-7.86-9.52-7.86-19.49,0-31.28,47.48-87.05,67.89-109.57,20.53-22.65,71.38-75.34,100.2-75.34,7.62,0,14.28,3.09,18.76,8.7,3.78,4.74,5.7,10.9,5.7,18.3v151.45c97.43.23,200.15,2.8,296.35,14.89,151.43,19.04,255.2,58.28,317.25,119.97,44.96,44.7,67.75,101.54,67.75,168.95v330.41c0,80.14-64.97,145.11-145.11,145.11ZM815.44,449.99v601.62c0,62.15,50.38,112.53,112.53,112.53h423.71c62.15,0,112.53-50.38,112.53-112.53v-330.41c0-59.25-19.02-106.95-58.14-145.85-112.33-111.68-370.65-124.75-590.64-125.36ZM782.87,275.09c-13.6,7.93-39.19,28.96-70.24,63.62-33.23,37.1-51.18,66.1-55.89,79.34l63.37-.37c20.5-.12,41.48-.24,62.77-.29v-142.31Z"/>
  <path fill="#bd5532" d="M307.94,325.99h509.99c20.15,0,36.51,16.36,36.51,36.51v598.03c0,25.83-20.97,46.81-46.81,46.81H-135.14c-20.95,0-37.95-17-37.95-37.95v-162.38c0-265.49,215.54-481.03,481.03-481.03Z" transform="translate(-325.9935 1007.3479) rotate(-90)"/>
</svg>
